# xmcd
#
# Track frame offsets:
#       150
#       23745
#       40976
#       53987
#       63677
#       76900
#       89781
#       113118
#       138447
#       155035
#       169152
#       180907
#       195853
#       206819
#
# Disc length: 2945 seconds
#
# Revision: 0
# Processed by: cddbd v1.4PL0 Copyright (c) Steve Scherf et al.
#
# Submitted via: MusicManager v5.1.0.0
#
DISCID=c00b7f0e
DTITLE=Merle Haggard - Ramblin' Fever
DYEAR=1986
DGENRE=country
TTITLE0=I Think I'll Just Stay Here And Drink
TTITLE1=Ramblin' Fever
TTITLE2=Take Me Back To Tulsa
TTITLE3=Mama Tried
TTITLE4=Misery And Gin
TTITLE5=Big City
TTITLE6=Make Up And Faded Blue Jeans
TTITLE7=Medley
TTITLE8=Jimmy The Broom
TTITLE9=Sit Around And Suffer
TTITLE10=My Favorite Memory
TTITLE11=I've Had A Beautiful Time
TTITLE12=Okie From Muskogee
TTITLE13=okie From Muskogee's Coming Home
EXTD=
EXTT0=
EXTT1=
EXTT2=
EXTT3=
EXTT4=
EXTT5=
EXTT6=
EXTT7=
EXTT8=
EXTT9=
EXTT10=
EXTT11=
EXTT12=
EXTT13=
PLAYORDER=
